<svg width="42" height="42" viewBox="0 0 42 42" fill="none" xmlns="http://www.w3.org/2000/svg">
<g opacity="0.75">
<rect width="42" height="42" rx="4" fill="#F2F2F2"/>
<path d="M27.3209 20.7504C27.3546 24.3824 30.507 25.591 30.542 25.6065C30.5153 25.6917 30.0383 27.3289 28.8811 29.0199C27.8808 30.482 26.8426 31.9386 25.2071 31.9688C23.6001 31.9984 23.0834 31.0159 21.2462 31.0159C19.4095 31.0159 18.8353 31.9386 17.3141 31.9984C15.7355 32.0582 14.5334 30.4174 13.5248 28.9608C11.4638 25.9811 9.88873 20.5409 12.0036 16.8687C13.0542 15.0451 14.9318 13.8903 16.9697 13.8607C18.5198 13.8311 19.983 14.9036 20.9307 14.9036C21.8777 14.9036 23.6558 13.6139 25.525 13.8033C26.3075 13.8358 28.5041 14.1194 29.9145 16.1839C29.8009 16.2544 27.2936 17.714 27.3209 20.7504V20.7504ZM24.3007 11.832C25.1388 10.8175 25.7029 9.4052 25.549 8C24.3409 8.04855 22.8801 8.80502 22.0136 9.81896C21.237 10.7168 20.5569 12.154 20.7404 13.5314C22.087 13.6355 23.4625 12.8471 24.3007 11.832" fill="#212121"/>
</g>
</svg>
