<svg width="42" height="42" viewBox="0 0 42 42" fill="none" xmlns="http://www.w3.org/2000/svg">
<g opacity="0.75">
<rect width="42" height="42" rx="4" fill="#F2F2F2"/>
<path d="M21.3899 9C21.2349 9 21.0749 9.008 20.9109 9.021C16.6839 9.354 17.8049 13.828 17.7409 15.319C17.6639 16.412 17.4409 17.273 16.6899 18.34C15.8049 19.391 14.5629 21.09 13.9739 22.861C13.6959 23.693 13.5639 24.545 13.6869 25.35C13.6479 25.384 13.6109 25.418 13.5759 25.485C13.3159 25.753 13.1269 26.086 12.9139 26.324C12.7149 26.523 12.4289 26.591 12.1169 26.724C11.8039 26.86 11.4589 26.993 11.2529 27.405C11.1629 27.593 11.1169 27.798 11.1209 28.006C11.1209 28.205 11.1479 28.407 11.1759 28.542C11.2339 28.941 11.2919 29.271 11.2149 29.512C10.9669 30.192 10.9359 30.658 11.1099 30.997C11.2839 31.331 11.6449 31.466 12.0489 31.598C12.8599 31.798 13.9589 31.733 14.8239 32.197C15.7499 32.664 16.6899 32.868 17.4399 32.667C17.9659 32.552 18.4099 32.204 18.6479 31.722C19.2349 31.719 19.8779 31.453 20.9079 31.388C21.6069 31.33 22.4819 31.655 23.4859 31.587C23.5109 31.722 23.5489 31.786 23.5999 31.921L23.6029 31.924C23.9939 32.702 24.7159 33.056 25.4869 32.995C26.2579 32.935 27.0789 32.459 27.7439 31.689C28.3749 30.924 29.4269 30.605 30.1219 30.186C30.4699 29.987 30.7509 29.717 30.7709 29.333C30.7939 28.933 30.5719 28.521 30.0569 27.956V27.859L30.0539 27.856C29.8839 27.656 29.8039 27.321 29.7159 26.93C29.6309 26.529 29.5339 26.144 29.2239 25.884H29.2209C29.1619 25.83 29.0979 25.817 29.0329 25.749C28.9769 25.711 28.9119 25.687 28.8429 25.685C29.2739 24.407 29.1069 23.135 28.6699 21.991C28.1369 20.581 27.2049 19.353 26.4949 18.508C25.6989 17.503 24.9189 16.551 24.9339 15.139C24.9609 12.987 25.1709 9.006 21.3899 9V9ZM21.9189 12.405H21.9319C22.1449 12.405 22.3279 12.467 22.5159 12.603C22.7069 12.738 22.8459 12.935 22.9549 13.136C23.0599 13.395 23.1129 13.595 23.1209 13.86C23.1209 13.84 23.1269 13.82 23.1269 13.801V13.905C23.1249 13.898 23.1229 13.89 23.1229 13.884L23.1189 13.86C23.1169 14.103 23.0659 14.343 22.9689 14.566C22.9219 14.691 22.8499 14.806 22.7559 14.901C22.7269 14.885 22.6989 14.871 22.6679 14.859C22.5629 14.814 22.4689 14.795 22.3829 14.726C22.3119 14.698 22.2379 14.675 22.1639 14.66C22.2129 14.601 22.3089 14.527 22.3459 14.462C22.3989 14.334 22.4279 14.198 22.4339 14.06V14.041C22.4359 13.906 22.4159 13.77 22.3729 13.641C22.3279 13.506 22.2719 13.44 22.1899 13.307C22.1059 13.241 22.0229 13.175 21.9229 13.175H21.9069C21.8139 13.175 21.7309 13.205 21.6449 13.307C21.5499 13.401 21.4789 13.514 21.4399 13.641C21.3869 13.768 21.3559 13.905 21.3499 14.041V14.06C21.3519 14.149 21.3579 14.239 21.3699 14.327C21.1769 14.26 20.9319 14.192 20.7629 14.125C20.7529 14.06 20.7469 13.993 20.7449 13.926V13.906C20.7369 13.642 20.7879 13.38 20.8949 13.137C20.9769 12.918 21.1269 12.731 21.3249 12.604C21.4959 12.475 21.7039 12.405 21.9189 12.405V12.405ZM18.9569 12.464H18.9929C19.1349 12.464 19.2629 12.512 19.3919 12.599C19.5379 12.728 19.6559 12.887 19.7359 13.064C19.8259 13.263 19.8769 13.465 19.8889 13.731V13.735C19.8959 13.869 19.8949 13.936 19.8869 14.001V14.081C19.8569 14.088 19.8309 14.099 19.8039 14.105C19.6519 14.16 19.5299 14.24 19.4109 14.305C19.4229 14.216 19.4239 14.126 19.4139 14.038V14.023C19.4019 13.89 19.3749 13.824 19.3319 13.69C19.3009 13.588 19.2439 13.497 19.1659 13.423C19.1169 13.378 19.0509 13.355 18.9829 13.359H18.9619C18.8909 13.365 18.8319 13.4 18.7759 13.491C18.7119 13.568 18.6709 13.662 18.6559 13.761C18.6289 13.869 18.6209 13.98 18.6329 14.092V14.106C18.6449 14.241 18.6699 14.307 18.7139 14.44C18.7589 14.574 18.8109 14.64 18.8789 14.708C18.8899 14.717 18.8999 14.726 18.9129 14.732C18.8429 14.789 18.7959 14.802 18.7369 14.868C18.6999 14.896 18.6569 14.928 18.6059 14.936C18.5019 14.811 18.4099 14.676 18.3309 14.534C18.2349 14.324 18.1849 14.096 18.1759 13.867C18.1589 13.641 18.1869 13.415 18.2559 13.199C18.3109 13.002 18.4079 12.82 18.5389 12.664C18.6669 12.531 18.7989 12.464 18.9569 12.464V12.464ZM20.3279 14.17C20.6589 14.17 21.0599 14.235 21.5429 14.569C21.8359 14.769 22.0659 14.838 22.5959 15.037H22.5989C22.8539 15.173 23.0039 15.303 23.0769 15.436V15.305C23.1499 15.452 23.1549 15.623 23.0929 15.775C22.9699 16.086 22.5769 16.419 22.0289 16.618V16.62C21.7609 16.755 21.5279 16.953 21.2539 17.085C20.9779 17.22 20.6659 17.377 20.2419 17.352C20.0899 17.36 19.9369 17.337 19.7939 17.285C19.6839 17.225 19.5759 17.159 19.4719 17.087C19.2769 16.952 19.1089 16.755 18.8599 16.622V16.617H18.8549C18.4549 16.371 18.2389 16.105 18.1689 15.906C18.0999 15.638 18.1639 15.437 18.3619 15.306C18.5859 15.171 18.7419 15.035 18.8449 14.97C18.9489 14.896 18.9879 14.868 19.0209 14.839H19.0229V14.836C19.1919 14.634 19.4589 14.367 19.8619 14.235C20.0009 14.199 20.1559 14.17 20.3279 14.17V14.17ZM23.1269 16.313C23.4859 17.73 24.3239 19.788 24.8629 20.786C25.1489 21.32 25.7179 22.445 25.9649 23.81C26.1209 23.805 26.2939 23.828 26.4779 23.874C27.1239 22.203 25.9319 20.407 25.3889 19.908C25.1679 19.707 25.1569 19.573 25.2659 19.573C25.8549 20.107 26.6309 21.145 26.9119 22.33C27.0409 22.865 27.0709 23.434 26.9329 24C26.9999 24.028 27.0679 24.061 27.1379 24.067C28.1699 24.601 28.5509 25.005 28.3679 25.604V25.561C28.3069 25.558 28.2479 25.561 28.1869 25.561H28.1719C28.3229 25.094 27.9899 24.736 27.1069 24.337C26.1919 23.937 25.4609 24.001 25.3359 24.802C25.3289 24.845 25.3239 24.868 25.3189 24.937C25.2509 24.96 25.1799 24.99 25.1099 25.001C24.6799 25.269 24.4479 25.67 24.3169 26.188C24.1869 26.721 24.1469 27.344 24.1119 28.057V28.06C24.0909 28.394 23.9409 28.898 23.7929 29.411C22.2929 30.483 20.2129 30.949 18.4439 29.745C18.3329 29.552 18.1979 29.371 18.0419 29.212C17.9679 29.087 17.8739 28.975 17.7669 28.878C17.9489 28.878 18.1049 28.849 18.2319 28.811C18.3769 28.744 18.4889 28.623 18.5459 28.477C18.6539 28.21 18.5459 27.78 18.2009 27.314C17.8559 26.847 17.2699 26.319 16.4129 25.793C15.7829 25.394 15.4269 24.923 15.2629 24.397C15.0979 23.863 15.1199 23.312 15.2479 22.752C15.4929 21.682 16.1209 20.642 16.5219 19.989C16.6289 19.924 16.5589 20.124 16.1139 20.963C15.7179 21.714 14.9729 23.46 15.9919 24.817C16.0299 23.828 16.2499 22.852 16.6389 21.941C17.2029 20.663 18.3819 18.437 18.4749 16.673C18.5229 16.709 18.6919 16.808 18.7639 16.875C18.9819 17.008 19.1439 17.208 19.3539 17.34C19.5649 17.541 19.8309 17.675 20.2299 17.675C20.2689 17.678 20.3049 17.681 20.3409 17.681C20.7519 17.681 21.0699 17.547 21.3369 17.413C21.6269 17.279 21.8579 17.079 22.0769 17.013H22.0819C22.5489 16.878 22.9179 16.611 23.1269 16.313V16.313ZM25.3129 25.271C25.3499 25.872 25.6559 26.516 26.1949 26.648C26.7829 26.782 27.6289 26.315 27.9859 25.883L28.1969 25.874C28.5119 25.866 28.7739 25.884 29.0439 26.141L29.0469 26.144C29.2549 26.343 29.3519 26.675 29.4379 27.02C29.5229 27.421 29.5919 27.8 29.8469 28.086C30.3329 28.613 30.4919 28.992 30.4829 29.226L30.4859 29.22V29.238L30.4829 29.226C30.4679 29.488 30.2979 29.622 29.9849 29.821C29.3549 30.222 28.2389 30.533 27.5279 31.391C26.9099 32.128 26.1569 32.53 25.4919 32.582C24.8279 32.635 24.2549 32.382 23.9179 31.684L23.9129 31.681C23.7029 31.28 23.7929 30.656 23.9689 29.991C24.1449 29.323 24.3969 28.646 24.4319 28.093C24.4689 27.379 24.5079 26.758 24.6269 26.279C24.7469 25.814 24.9349 25.482 25.2679 25.295L25.3129 25.273V25.271ZM14.4979 25.32H14.5079C14.5609 25.32 14.6129 25.325 14.6649 25.334C15.0409 25.389 15.3709 25.667 15.6879 26.086L16.5979 27.75L16.6009 27.753C16.8439 28.286 17.3549 28.817 17.7899 29.391C18.2239 29.989 18.5599 30.522 18.5189 30.961V30.967C18.4619 31.711 18.0399 32.115 17.3939 32.261C16.7489 32.396 15.8739 32.263 14.9989 31.797C14.0309 31.261 12.8809 31.328 12.1419 31.195C11.7729 31.129 11.5309 30.994 11.4189 30.794C11.3079 30.595 11.3059 30.193 11.5419 29.564V29.561L11.5439 29.558C11.6609 29.224 11.5739 28.805 11.5169 28.439C11.4619 28.038 11.4339 27.73 11.5599 27.499C11.7199 27.165 11.9559 27.1 12.2489 26.966C12.5439 26.831 12.8899 26.764 13.1649 26.497H13.1669V26.494C13.4229 26.226 13.6119 25.893 13.8349 25.656C14.0249 25.455 14.2149 25.32 14.4979 25.32V25.32ZM21.6569 16.246C21.2219 16.447 20.7119 16.781 20.1689 16.781C19.6269 16.781 19.1989 16.514 18.8899 16.315C18.7349 16.181 18.6099 16.047 18.5159 15.98C18.3519 15.846 18.3719 15.646 18.4419 15.646C18.5509 15.662 18.5709 15.781 18.6409 15.847C18.7369 15.913 18.8559 16.046 19.0019 16.18C19.2929 16.38 19.6819 16.647 20.1679 16.647C20.6529 16.647 21.2209 16.38 21.5659 16.181C21.7609 16.046 22.0109 15.847 22.2139 15.714C22.3699 15.577 22.3629 15.446 22.4929 15.446C22.6219 15.462 22.5269 15.58 22.3459 15.779C22.1649 15.914 21.8849 16.114 21.6559 16.247V16.246H21.6569ZM20.5749 14.662V14.64C20.5689 14.621 20.5879 14.598 20.6039 14.59C20.6779 14.547 20.7839 14.563 20.8639 14.594C20.9269 14.594 21.0239 14.661 21.0139 14.729C21.0079 14.778 20.9289 14.795 20.8789 14.795C20.8239 14.795 20.7869 14.752 20.7379 14.727C20.6859 14.709 20.5919 14.719 20.5749 14.662V14.662ZM20.0239 14.662C20.0039 14.72 19.9109 14.711 19.8579 14.728C19.8109 14.753 19.7719 14.796 19.7189 14.796C19.6679 14.796 19.5879 14.777 19.5819 14.728C19.5729 14.662 19.6699 14.595 19.7319 14.595C19.8129 14.564 19.9159 14.548 19.9909 14.59C20.0099 14.599 20.0269 14.62 20.0209 14.64V14.661H20.0239V14.662Z" fill="#212121"/>
</g>
</svg>
