<svg width="42" height="42" viewBox="0 0 42 42" fill="none" xmlns="http://www.w3.org/2000/svg">
<g opacity="0.75">
<rect width="42" height="42" rx="4" fill="#F2F2F2"/>
<path d="M20.0163 11.0282V20.213C20.0163 20.3217 20.1044 20.4098 20.213 20.4098H32.8001C32.9088 20.4098 32.9969 20.3217 32.9969 20.213V9.19671C32.9969 9.13959 32.9721 9.08529 32.9289 9.04791C32.8858 9.01054 32.8285 8.99386 32.7718 9.00204L20.1847 10.8335C20.088 10.8476 20.0163 10.9305 20.0163 11.0282Z" fill="#212121"/>
<path d="M18.6394 31.0287C18.6867 31.0287 18.7328 31.0117 18.7688 30.9802C18.8116 30.9428 18.8362 30.8888 18.8362 30.832V21.7869C18.8362 21.6782 18.7481 21.5902 18.6394 21.5902H9.20396C9.15179 21.5902 9.10175 21.6109 9.06484 21.6478C9.02794 21.6847 9.00724 21.7347 9.00724 21.7869L9.00771 29.5389C9.00771 29.6372 9.08034 29.7204 9.17768 29.7338L18.6127 31.027C18.6216 31.0281 18.6305 31.0287 18.6394 31.0287Z" fill="#212121"/>
<path d="M9.2053 20.4097H18.6394C18.7481 20.4097 18.8361 20.3217 18.8361 20.213V11.2569C18.8361 11.2 18.8116 11.1461 18.7689 11.1087C18.7261 11.0713 18.6696 11.0542 18.613 11.0619L9.17028 12.3443C9.07263 12.3575 8.99992 12.4409 9 12.5394L9.00858 20.2132C9.00873 20.3218 9.09679 20.4097 9.2053 20.4097Z" fill="#212121"/>
<path d="M32.8001 33C32.8473 33 32.8932 32.9831 32.9292 32.9518C32.9722 32.9144 32.9969 32.8602 32.9969 32.8033L33 21.7869C33 21.7347 32.9793 21.6847 32.9424 21.6478C32.9055 21.6109 32.8555 21.5902 32.8033 21.5902H20.213C20.1044 21.5902 20.0163 21.6782 20.0163 21.7869V31.0325C20.0163 31.1305 20.0886 31.2136 20.1856 31.2273L32.7727 32.9981C32.7819 32.9994 32.791 33 32.8001 33Z" fill="#212121"/>
</g>
</svg>
